<svg width="200" height="220" viewBox="0 0 200 220" fill="none" xmlns="http://www.w3.org/2000/svg">
<rect x="30" y="37" width="131" height="131" rx="65.5" fill="#DE00D0"/>
<path d="M117.613 95.9096L120.201 93.3217C122.259 91.263 123.416 88.4709 123.416 85.5595C123.416 82.6481 122.259 79.8559 120.201 77.7973C118.142 75.7386 115.35 74.582 112.439 74.582C109.527 74.582 106.735 75.7386 104.676 77.7973L102.088 80.3851L78.2979 104.17C76.6871 105.784 75.8803 106.591 75.188 107.478C74.3711 108.526 73.67 109.66 73.097 110.859C72.6141 111.875 72.2539 112.958 71.5337 115.119L68.4796 124.279M117.613 95.9096C117.613 95.9096 112.116 95.5858 107.264 90.7338C102.412 85.8847 102.091 80.3851 102.091 80.3851M117.613 95.9096L93.8251 119.695C92.2143 121.305 91.4076 122.112 90.5198 122.805C89.4716 123.621 88.3381 124.322 87.1391 124.895C86.1229 125.378 85.0426 125.739 82.879 126.459L73.7196 129.513M73.7196 129.513L71.4806 130.261C70.9587 130.436 70.3984 130.462 69.8625 130.336C69.3267 130.21 68.8366 129.937 68.4474 129.548C68.0582 129.159 67.7852 128.669 67.6592 128.133C67.5333 127.597 67.5592 127.037 67.7342 126.515L68.4824 124.276L73.7196 129.513Z" stroke="white" stroke-width="4.1875"/>
</svg>
